# xmcd
#
# Track frame offsets:
#	150
#	46992
#	92004
#	144273
#
# Disc length: 2573 seconds
#
# Revision: 1
# Processed by: cddbd v1.5.2PL0 Copyright (c) Steve Scherf et al.
# Submitted via: audiograbber 1.83.01
#
DISCID=2a0a0b04
DTITLE=Grateful Dead - 78-05-07 Rennselaer Polytechnic, Troy NY
DYEAR=1900
DGENRE=
TTITLE0=Scarlet Begonias
TTITLE1=Fire On The Mountain
TTITLE2=Estimated Prophet
TTITLE3=He's Gone
EXTD=
EXTT0=
EXTT1=
EXTT2=
EXTT3=
PLAYORDER=
